# xmcd
#
# Track frame offsets:
#	150
#	15641
#	31902
#	48407
#	64163
#	83229
#	102379
#	117022
#	132779
#	162824
#
# Disc length: 2435 seconds
#
# Revision: 1
# Processed by: cddbd v1.5.2PL0 Copyright (c) Steve Scherf et al.
# Submitted via: audiograbber 1.83.01
#
DISCID=7709810a
DTITLE=strongT - strongT
DYEAR=2013
DGENRE=R&B
TTITLE0=Life Change
TTITLE1=Move Ahead
TTITLE2=What's Done Is Done
TTITLE3=Willow Tree
TTITLE4=Wake Up
TTITLE5=Paint My Mailbox
TTITLE6=Room 469
TTITLE7=The Seventh Son
TTITLE8=Sunday Morning
TTITLE9=Strong 4U
EXTD=
EXTT0=
EXTT1=
EXTT2=
EXTT3=
EXTT4=
EXTT5=
EXTT6=
EXTT7=
EXTT8=
EXTT9=
PLAYORDER=
